<svg xmlns="http://www.w3.org/2000/svg" xmlns:xlink="http://www.w3.org/1999/xlink" version="1.1" x="0px" y="0px" viewBox="0 0 100 125" enable-background="new 0 0 100 100" xml:space="preserve"><path d="M47.5,47.7v-1.3h-2c-1.2,0-2.1-1-2.1-2.1c0-1.2,1-2.1,2.1-2.1h5.8c0.8,0,1.4-0.6,1.4-1.4c0-0.8-0.6-1.4-1.4-1.4H48  c-3.1,0-5.6-2.5-5.6-5.6c0-2.9,2.3-5.3,5.1-5.6v-1.3c0-1.2,1-2.1,2.1-2.1c1.2,0,2.1,1,2.1,2.1v1.2h1.9c1.2,0,2.1,1,2.1,2.1  s-1,2.1-2.1,2.1H48c-0.8,0-1.4,0.6-1.4,1.4s0.6,1.4,1.4,1.4h3.2c3.1,0,5.6,2.5,5.6,5.6c0,2.9-2.3,5.3-5.1,5.6v1.3  c0,1.2-1,2.1-2.1,2.1C48.4,49.9,47.5,48.9,47.5,47.7z M49.6,20.7c1.2,0,2.1-1,2.1-2.1v-4.2c0-1.2-1-2.1-2.1-2.1  c-1.2,0-2.1,1-2.1,2.1v4.2C47.5,19.8,48.4,20.7,49.6,20.7z M50.1,53.3c-1.2,0-2.1,1-2.1,2.1v4.2c0,1.2,1,2.1,2.1,2.1  c1.2,0,2.1-1,2.1-2.1v-4.2C52.2,54.2,51.2,53.3,50.1,53.3z M27.2,39.8h4.7c1.2,0,2.1-1,2.1-2.1c0-1.2-1-2.1-2.1-2.1h-4.7  c-1.2,0-2.1,1-2.1,2.1C25.1,38.9,26,39.8,27.2,39.8z M72.9,39.3c1.2,0,2.1-1,2.1-2.1c0-1.2-1-2.1-2.1-2.1h-4.7c-1.2,0-2.1,1-2.1,2.1  c0,1.2,1,2.1,2.1,2.1H72.9z M34.8,25.8c0.4,0.4,1,0.6,1.5,0.6s1.1-0.2,1.5-0.6c0.8-0.8,0.8-2.2,0-3L35,19.9c-0.8-0.8-2.2-0.8-3,0  c-0.8,0.8-0.8,2.2,0,3L34.8,25.8z M61.4,48.8c-0.8,0.8-0.8,2.2,0,3l2.9,2.9c0.4,0.4,1,0.6,1.5,0.6c0.5,0,1.1-0.2,1.5-0.6  c0.8-0.8,0.8-2.2,0-3l-2.9-2.9C63.6,48,62.3,48,61.4,48.8z M35.1,49.1L32.2,52c-0.8,0.8-0.8,2.2,0,3c0.4,0.4,1,0.6,1.5,0.6  c0.5,0,1.1-0.2,1.5-0.6l2.9-2.9c0.8-0.8,0.8-2.2,0-3C37.3,48.3,36,48.3,35.1,49.1z M64,19.6l-2.9,2.9c-0.8,0.8-0.8,2.2,0,3  c0.4,0.4,1,0.6,1.5,0.6c0.5,0,1.1-0.2,1.5-0.6l2.9-2.9c0.8-0.8,0.8-2.2,0-3C66.2,18.8,64.9,18.8,64,19.6z M67.3,67.4l9.7-4.1  c0,0,0,0,0,0c0,0,0.1,0.1,0.1,0.1c-0.6,0.4-2.4,1.7-4.2,2.9c-4.5,3.1-4.5,3.1-4.6,3.3c-0.8,0.8-0.9,2.2,0,3c0.8,0.8,1.9,0.8,2.8,0.2  c0.3-0.2,2.3-1.6,4.3-3c4.6-3.2,4.6-3.2,4.7-3.4c1.4-1.5,1.7-3.6,0.6-5.3c-1.1-1.7-3.1-2.5-5.1-1.8c-0.1,0-0.1,0-0.2,0.1l-9.8,4.2  c-5.1,1.8-8,7.3-8.1,7.5c-0.1,0.1-0.1,0.2-0.1,0.3l-4.3,13.2c-0.4,1.1,0.2,2.3,1.4,2.7c0.2,0.1,0.4,0.1,0.7,0.1c0.9,0,1.7-0.6,2-1.5  l4.3-13c0.4-0.7,2.6-4.3,5.7-5.3C67.1,67.5,67.2,67.5,67.3,67.4z M93.6,41.1c-2-0.9-4.2-0.3-5.4,1.6c0,0,0,0.1-0.1,0.1l-7.4,13.6  c-0.6,1-0.2,2.3,0.8,2.9c1,0.6,2.3,0.2,2.9-0.8L91.8,45l-7.6,22.7c-0.4,1.3-1.4,2.5-2.7,3.1L68.8,77c-2,1-3.5,2.8-4,4.9L64,85.1  c-0.3,1.1,0.4,2.3,1.5,2.6c0.2,0,0.4,0.1,0.5,0.1c0.9,0,1.8-0.6,2-1.6l0.8-3.2c0.3-1,0.9-1.8,1.8-2.2l12.6-6.2  c2.3-1.1,4-3.1,4.8-5.5l7.6-22.8C96.5,44.2,95.5,42,93.6,41.1z M42.6,71.3c0-0.1-0.1-0.2-0.1-0.3c-0.1-0.2-3-5.8-8.1-7.5l-9.8-4.2  c-0.1,0-0.1,0-0.2-0.1c-2-0.7-4,0.1-5.1,1.8c-1.1,1.7-0.9,3.9,0.6,5.3c0.2,0.2,0.2,0.2,4.7,3.4c2,1.4,4,2.8,4.3,3  c0.8,0.6,2,0.6,2.8-0.2c0.8-0.8,0.8-2.2,0-3c-0.1-0.1-0.1-0.1-4.6-3.3c-1.8-1.2-3.5-2.5-4.2-2.9c0,0,0.1-0.1,0.1-0.1c0,0,0,0,0,0  l9.7,4.1c0.1,0,0.1,0,0.2,0.1c3.1,1,5.3,4.6,5.7,5.3l4.3,13c0.3,0.9,1.1,1.5,2,1.5c0.2,0,0.4,0,0.7-0.1c1.1-0.4,1.7-1.6,1.4-2.7  L42.6,71.3z M35.2,81.9c-0.6-2.1-2-3.9-4-4.9l-12.6-6.2c-1.3-0.6-2.2-1.7-2.7-3.1L8.2,45l7.4,13.4c0.6,1,1.9,1.4,2.9,0.8  c1-0.6,1.4-1.9,0.8-2.9l-7.4-13.6c0,0,0-0.1-0.1-0.1c-1.1-1.9-3.4-2.5-5.4-1.6c-2,0.9-2.9,3.1-2.2,5.2L11.8,69  c0.8,2.4,2.6,4.4,4.8,5.5l12.6,6.2c0.9,0.4,1.5,1.2,1.8,2.2l0.8,3.2c0.3,1,1.1,1.6,2,1.6c0.2,0,0.4,0,0.5-0.1  c1.1-0.3,1.8-1.5,1.5-2.6L35.2,81.9z"/></svg>