<svg xmlns="http://www.w3.org/2000/svg" data-name="Layer 1" viewBox="0 0 64 64" x="0px" y="0px"><path d="M32,60c7.149,0,13.886-2.657,19.083-7.502l-7.253-7.245c-.103,.092-.215,.172-.321,.261-.192,.164-.387,.322-.584,.476-.249,.195-.501,.382-.759,.562-.205,.144-.411,.284-.62,.418-.264,.169-.533,.328-.804,.482-.215,.122-.43,.244-.65,.357-.28,.144-.565,.275-.852,.403-.222,.099-.442,.201-.667,.291-.298,.119-.602,.222-.906,.324-.224,.075-.445,.156-.671,.222-.323,.094-.651,.169-.979,.245-.216,.05-.429,.108-.647,.15-.367,.07-.74,.117-1.113,.165-.186,.024-.369,.059-.556,.076-.562,.053-1.129,.083-1.701,.083-.602,0-1.197-.032-1.783-.09-.196-.02-.385-.06-.579-.086-.387-.052-.775-.1-1.154-.177-.228-.046-.449-.113-.674-.168-.335-.082-.672-.157-1-.258-.236-.072-.464-.164-.696-.246-.306-.108-.614-.21-.911-.334-.234-.097-.457-.212-.686-.318-.284-.133-.57-.261-.846-.408-.226-.121-.442-.256-.662-.386-.264-.156-.53-.309-.785-.478-.216-.143-.42-.299-.629-.45-.245-.178-.49-.353-.726-.543-.202-.163-.394-.338-.588-.51-.225-.198-.45-.395-.664-.604-.188-.183-.365-.375-.544-.566-.203-.217-.406-.433-.599-.659-.171-.201-.331-.409-.492-.618-.182-.234-.362-.468-.532-.712-.152-.217-.294-.441-.436-.665-.159-.25-.315-.501-.462-.759-.132-.232-.254-.469-.375-.708-.135-.265-.266-.531-.387-.803-.11-.245-.211-.494-.309-.745-.109-.278-.214-.558-.309-.843-.086-.257-.165-.517-.24-.78-.083-.29-.158-.583-.226-.879-.061-.268-.116-.537-.165-.809-.054-.301-.1-.604-.139-.911-.035-.277-.065-.554-.087-.835-.011-.141-.036-.279-.044-.421H4.018c.528,14.978,12.878,27,27.982,27Z"/><path d="M60,32c0-3.327-.569-6.553-1.693-9.602l-9.496,3.852c.043,.124,.072,.252,.112,.377,.064,.2,.123,.401,.18,.603,.089,.318,.167,.639,.237,.962,.043,.199,.088,.397,.125,.598,.064,.354,.112,.712,.155,1.071,.021,.173,.048,.345,.064,.519,.048,.535,.077,1.075,.077,1.62,0,.574-.03,1.142-.083,1.706-.018,.188-.053,.372-.076,.558-.047,.373-.094,.747-.164,1.114-.042,.219-.1,.433-.151,.65-.076,.328-.15,.657-.245,.979-.066,.227-.147,.449-.222,.674-.102,.304-.205,.608-.324,.905-.09,.226-.192,.447-.291,.67-.128,.286-.259,.571-.402,.851-.113,.22-.235,.435-.357,.651-.154,.271-.312,.539-.481,.802-.135,.211-.276,.417-.42,.623-.18,.256-.366,.507-.56,.753-.156,.199-.315,.395-.48,.587-.089,.104-.167,.214-.258,.316l7.252,7.244c4.846-5.196,7.503-11.934,7.503-19.083Z"/><path d="M47.76,32c0-2.077-.388-4.072-1.154-5.929-1.282-3.151-3.521-5.774-6.381-7.513-.409-.248-.83-.479-1.263-.69-1.651-.811-3.381-1.321-5.163-1.526-.594-.068-1.194-.102-1.798-.102-8.69,0-15.76,7.07-15.76,15.76s7.07,15.77,15.76,15.77c4.198,0,8.156-1.64,11.144-4.618,2.605-2.605,4.185-5.963,4.54-9.585,.051-.518,.076-1.04,.076-1.567Zm-17.158-1h2.796c2.179,0,3.951,1.772,3.951,3.951v1.036c0,2.179-1.772,3.951-3.951,3.951h-.398v1.951c0,.552-.448,1-1,1s-1-.448-1-1v-1.951h-.398c-2.179,0-3.951-1.772-3.951-3.951,0-.552,.448-1,1-1s1,.448,1,1c0,1.076,.875,1.951,1.951,1.951h2.796c1.076,0,1.951-.875,1.951-1.951v-1.036c0-1.076-.875-1.951-1.951-1.951h-2.796c-2.179,0-3.951-1.772-3.951-3.951v-1.036c0-2.179,1.772-3.951,3.951-3.951h.398v-1.951c0-.552,.448-1,1-1s1,.448,1,1v1.951h.398c2.179,0,3.951,1.772,3.951,3.951,0,.552-.448,1-1,1s-1-.448-1-1c0-1.076-.875-1.951-1.951-1.951h-2.796c-1.076,0-1.951,.875-1.951,1.951v1.036c0,1.076,.875,1.951,1.951,1.951Z"/><path d="M4.018,31H14.268c.008-.142,.033-.28,.044-.421,.022-.28,.052-.556,.087-.832,.039-.307,.085-.611,.14-.913,.049-.271,.104-.539,.165-.805,.068-.297,.144-.591,.227-.883,.074-.261,.152-.519,.238-.775,.096-.287,.201-.568,.311-.848,.098-.249,.198-.496,.307-.739,.123-.274,.255-.543,.39-.809,.12-.236,.242-.471,.372-.701,.148-.261,.305-.514,.466-.766,.141-.222,.281-.443,.432-.657,.172-.246,.354-.482,.538-.719,.16-.206,.318-.412,.487-.61,.194-.229,.4-.447,.605-.666,.177-.189,.353-.379,.538-.56,.216-.211,.443-.409,.67-.609,.193-.17,.383-.343,.583-.505,.237-.191,.484-.368,.731-.547,.207-.15,.41-.305,.624-.446,.257-.17,.524-.324,.79-.48,.219-.129,.433-.264,.657-.383,.277-.148,.565-.277,.851-.411,.227-.106,.449-.219,.681-.316,.299-.124,.608-.227,.915-.336,.231-.081,.457-.172,.692-.245,.328-.101,.666-.177,1.003-.258,.224-.055,.444-.121,.671-.167,.379-.077,.768-.125,1.156-.177,.193-.026,.382-.066,.577-.085,.587-.059,1.181-.09,1.783-.09,.548,0,1.092,.032,1.633,.081,.077,.007,.155,.012,.232,.02,.514,.054,1.023,.133,1.528,.232,.094,.018,.187,.037,.28,.057,.503,.107,1.001,.234,1.494,.385,.078,.024,.154,.051,.231,.076,.514,.165,1.023,.348,1.525,.562,.003,.001,.006,.002,.008,.003l4.523-9.206c-3.6-1.626-7.448-2.45-11.455-2.45-15.104,0-27.454,12.022-27.982,27Z"/><path d="M45.249,7.334l-4.233,8.614-.289,.588c.103,.058,.2,.125,.302,.185,.169,.099,.334,.202,.499,.306,.265,.168,.525,.343,.78,.525,.157,.112,.314,.223,.468,.339,.265,.202,.521,.414,.773,.63,.127,.109,.258,.213,.382,.325,.354,.32,.696,.653,1.023,1.001,.014,.015,.03,.029,.045,.044,.338,.363,.657,.743,.964,1.133,.1,.128,.192,.262,.289,.393,.202,.272,.399,.547,.586,.831,.104,.159,.203,.321,.302,.484,.166,.271,.325,.545,.476,.826,.093,.172,.184,.345,.271,.52,.054,.108,.115,.21,.167,.319l9.498-3.853c-2.521-5.644-6.841-10.282-12.303-13.211Z"/></svg>